<?xml version="1.0" encoding="UTF-8" standalone="no"?>
<svg
   width="209.30795"
   height="45"
   viewBox="192.5 433.87 209.30796 45"
   fill="#ffffff"
   version="1.1"
   id="svg15"
   sodipodi:docname="logo-light.svg"
   inkscape:version="1.3.2 (091e20e, 2023-11-25)"
   xmlns:inkscape="http://www.inkscape.org/namespaces/inkscape"
   xmlns:sodipodi="http://sodipodi.sourceforge.net/DTD/sodipodi-0.dtd"
   xmlns="http://www.w3.org/2000/svg"
   xmlns:svg="http://www.w3.org/2000/svg">
  <defs
     id="defs15" />
  <sodipodi:namedview
     id="namedview15"
     pagecolor="#ffffff"
     bordercolor="#000000"
     borderopacity="0.25"
     inkscape:showpageshadow="2"
     inkscape:pageopacity="0.0"
     inkscape:pagecheckerboard="0"
     inkscape:deskcolor="#d1d1d1"
     inkscape:zoom="1.1724912"
     inkscape:cx="133.05004"
     inkscape:cy="16.204813"
     inkscape:window-width="1312"
     inkscape:window-height="449"
     inkscape:window-x="0"
     inkscape:window-y="38"
     inkscape:window-maximized="0"
     inkscape:current-layer="svg15" />
  <style
     type="text/css"
     id="style1">
	.st0{fill:#F66003;}
	.st1{fill:#FFFFFF;}
</style>
  <g
     id="g15"
     transform="matrix(0.34039334,0,0,0.34039334,126.97428,286.17333)">
    <g
       id="g10">
      <g
         id="g9">
        <path
           d="m 373.9,470.3 c 20.5,0 34.7,13.5 34.7,33 0,19.4 -14.4,33 -35.3,33 h -27.5 v -66.1 h 28.1 z m -13.1,53.5 h 13.5 c 11,0 19.2,-8.3 19.2,-20.4 0,-12.2 -8.5,-20.6 -19.8,-20.6 h -12.8 v 41 z"
           id="path1" />
        <path
           d="M 466.4,536.3 H 452 v -9 c -3.5,6.4 -9.3,9.5 -17,9.5 -11.2,0 -18.3,-7.5 -18.3,-19.4 v -31.9 h 14.5 v 27.8 c 0,6.4 3.7,10.3 9.5,10.3 7,-0.1 11.2,-5.6 11.2,-12.9 v -25.1 h 14.4 v 50.7 z"
           id="path2" />
        <path
           d="m 511.9,533.5 c -3.8,2.2 -8.5,3.5 -13.2,3.5 -9.1,0 -16,-5.2 -16,-15.7 v -23.5 h -7.1 v -10 h 7.1 v -14 h 14.4 v 14 H 511 v 10.1 h -13.8 v 21 c 0,4.2 1.8,5.9 4.9,5.9 1.9,0 4.2,-0.7 6.8,-1.9 z"
           id="path3" />
        <path
           d="m 565,495.8 -9.8,7.1 c -2.7,-3.4 -6.6,-5.5 -11.6,-5.4 -7.1,0 -12.1,5.5 -12.1,13.6 0,8.2 5,13.8 12.1,13.8 5.2,0 9.2,-2 11.8,-5.9 l 10,6.8 c -4.2,7.1 -12.2,11.2 -22.6,11.2 -15.4,0 -25.9,-10.4 -25.9,-25.8 0,-15.6 10.5,-26.1 26.1,-26.1 9.8,0 17.5,3.9 22,10.7 z"
           id="path4" />
        <path
           d="m 624.7,504.4 v 31.9 h -14.5 v -27.7 c 0,-6.4 -3.8,-10.4 -10,-10.4 -7.3,0.1 -11.7,5.6 -11.7,13 v 25 H 574 v -70 h 14.5 v 28.2 c 3.6,-6.3 9.6,-9.4 17.6,-9.5 11.4,0.1 18.6,7.6 18.6,19.5 z"
           id="path5" />
        <path
           d="m 665.9,470.3 c 14.5,0 23.6,6.3 23.6,16.5 0,7.2 -4.3,12.7 -11.4,14.5 8.5,1.6 13.8,8 13.8,16.7 0,11.3 -9.5,18.3 -24.9,18.3 h -31.4 v -66.1 h 30.3 z m -15.5,26.6 h 14.7 c 5.6,0 9.1,-2.7 9.1,-7.4 0,-4.5 -3.5,-7.1 -9.1,-7.1 h -14.7 z m 0,27.3 h 14.7 c 7.1,0 11.3,-2.9 11.3,-8 0,-4.8 -4.2,-7.7 -11.3,-7.7 h -14.7 z"
           id="path6" />
        <path
           d="M 700.4,536.3 V 485.5 H 715 v 50.8 z"
           id="path7" />
        <path
           d="m 759.4,533.5 c -3.8,2.2 -8.5,3.5 -13.2,3.5 -9.1,0 -16,-5.2 -16,-15.7 v -23.5 h -7.1 v -10 h 7.1 v -14 h 14.4 v 14 h 13.8 v 10.1 h -13.8 v 21 c 0,4.2 1.8,5.9 4.9,5.9 1.9,0 4.2,-0.7 6.8,-1.9 z"
           id="path8" />
        <path
           d="m 807.1,490.6 -5,9.9 c -5.6,-3.1 -11.2,-4.9 -15.5,-4.9 -3.4,0 -5.9,1.1 -5.9,3.8 0,7.6 26.8,3.8 26.7,21.7 0,10.4 -9.2,15.9 -20.7,15.9 -8.2,0 -16.2,-2.5 -22,-7.1 l 4.7,-9.8 c 5.3,4.1 12.1,6.3 17.7,6.3 3.7,0 6.4,-1.2 6.4,-4 0,-8.1 -26.3,-3.8 -26.3,-21.6 0,-10.5 9,-15.9 20,-15.9 7.1,0 14.3,2.1 19.9,5.7 z"
           id="path9" />
      </g>
    </g>
    <g
       id="g14">
      <g
         id="g12">
        <g
           id="g11">
          <path
             class="st0"
             d="m 192.5,460.2 v 79.6 c 0,14.5 11.8,26.3 26.3,26.3 h 32.3 v -14.9 h -32.3 c -6.3,0 -11.4,-5.1 -11.4,-11.4 v -79.6 c 0,-6.3 5.1,-11.4 11.4,-11.4 h 32.3 v -14.9 h -32.3 c -14.5,0 -26.3,11.8 -26.3,26.3 z"
             id="path10" />
          <path
             class="st0"
             d="m 324.7,460.2 c 0,-14.5 -11.8,-26.3 -26.3,-26.3 h -32.3 v 14.9 h 32.3 c 6.3,0 11.4,5.1 11.4,11.4 v 29.6 l -10.2,10.2 10.2,10.2 v 29.6 c 0,6.3 -5.1,11.4 -11.4,11.4 h -32.3 v 14.9 h 32.3 c 14.5,0 26.3,-11.8 26.3,-26.3 V 510.6 L 314.2,500 324.8,489.4 v -29.2 z"
             id="path11" />
        </g>
      </g>
      <g
         id="g13">
        <polygon
           class="st0"
           points="266.1,551.2 251.1,551.2 285.2,500.3 251.1,448.8 266.1,448.8 300.1,500.3 "
           id="polygon12" />
      </g>
    </g>
    <circle
       class="st0"
       cx="707.70001"
       cy="470.29999"
       r="8.6999998"
       id="circle14" />
  </g>
</svg>
