<svg version="1.2" xmlns="http://www.w3.org/2000/svg" viewBox="0 0 393 111" width="393" height="111"><style>.a{fill:#fff}.b{fill:#f59e0b}</style><path class="a" d="m58.5 109l-18.8-37.6h-13.9v37.6h-25.7v-106.6h41.9q19 0 29.7 8.4 10.7 8.4 10.7 23.8 0 11.1-4.6 18.4-4.4 7.4-14 11.9l22.2 43v1.1zm-32.7-86.8v29.3h16.3q7.3 0 10.9-3.8 3.8-3.9 3.8-10.8 0-6.9-3.8-10.7-3.7-4-10.9-4zm132.8 50.7h25.6q-0.5 11.1-6 19.7-5.5 8.5-15.5 13.2-9.9 4.7-22.6 4.7-21 0-33.1-13.7-12.1-13.7-12.1-38.7v-5.3q0-15.7 5.4-27.4 5.5-11.8 15.8-18.1 10.2-6.5 23.7-6.5 19.4 0 31.2 10.3 11.8 10.2 13.4 28.1h-25.6q-0.3-9.7-4.9-14-4.7-4.2-14.1-4.2-9.6 0-14.1 7.1-4.4 7.2-4.6 23v7.5q0 17.1 4.2 24.4 4.3 7.3 14.8 7.3 8.9 0 13.5-4.2 4.7-4.1 5-13.2zm104.5 36.1l-6.2-19.9h-35.2l-6.2 19.9h-27.4l39.1-106.6h24.1l39.5 106.6zm-23.9-76.8l-11.4 37h22.9z"/><path class="b" d="m329.3 2.4l11.3 35.3 22.4-35.3h29.7l-37.9 53.9 20.8 52.7h-27.7l-11.7-36-23 36h-30l38.8-54.8-20.2-51.8z"/></svg>