<?xml version="1.0" encoding="UTF-8" standalone="no"?>
<!-- Created with Inkscape (http://www.inkscape.org/) -->

<svg
   width="78.734596mm"
   height="21.484154mm"
   viewBox="0 0 78.734596 21.484154"
   version="1.1"
   id="svg1"
   xml:space="preserve"
   sodipodi:docname="RCAX.svg"
   inkscape:version="1.3.2 (091e20e, 2023-11-25, custom)"
   xmlns:inkscape="http://www.inkscape.org/namespaces/inkscape"
   xmlns:sodipodi="http://sodipodi.sourceforge.net/DTD/sodipodi-0.dtd"
   xmlns:xlink="http://www.w3.org/1999/xlink"
   xmlns="http://www.w3.org/2000/svg"
   xmlns:svg="http://www.w3.org/2000/svg"><sodipodi:namedview
     id="namedview1"
     pagecolor="#505050"
     bordercolor="#eeeeee"
     borderopacity="1"
     inkscape:showpageshadow="0"
     inkscape:pageopacity="0"
     inkscape:pagecheckerboard="0"
     inkscape:deskcolor="#505050"
     inkscape:document-units="mm"
     inkscape:zoom="0.5"
     inkscape:cx="6985"
     inkscape:cy="1266"
     inkscape:window-width="1360"
     inkscape:window-height="715"
     inkscape:window-x="-8"
     inkscape:window-y="-8"
     inkscape:window-maximized="1"
     inkscape:current-layer="layer1" /><defs
     id="defs1"><linearGradient
       id="linearGradient119"
       inkscape:collect="always"
       inkscape:label="amber 500-600"><stop
         style="stop-color:#ff4500;stop-opacity:1;"
         offset="0"
         id="stop118" /><stop
         style="stop-color:#f29d0f;stop-opacity:1;"
         offset="1"
         id="stop119" /></linearGradient><linearGradient
       inkscape:collect="always"
       xlink:href="#linearGradient119"
       id="linearGradient92"
       gradientUnits="userSpaceOnUse"
       gradientTransform="translate(254.2716,134.81041)"
       x1="1705.0295"
       y1="269.50314"
       x2="1705.0295"
       y2="248.04361" /></defs><g
     inkscape:label="Layer 1"
     inkscape:groupmode="layer"
     id="layer1"
     transform="translate(-1889.3829,-382.83703)"><path
       id="path85"
       style="color:#000000;fill:#191c1f;fill-opacity:1;stroke-linecap:round;stroke-linejoin:round;-inkscape-stroke:none"
       d="m 1891.3827,382.85394 a 2.000195,2.000195 0 0 0 -1.9998,1.99988 v 9.82059 7.63881 a 2,2 0 0 0 1.9998,1.99988 2,2 0 0 0 1.9999,-1.99988 v -5.63893 h 4.2628 l 4.7821,6.7908 a 2,2 0 0 0 2.7875,0.48265 2,2 0 0 0 0.4821,-2.78691 l -3.6819,-5.22965 c 2.362,-1.11048 4.0473,-3.36539 4.0473,-6.07146 v -0.19327 c 0,-3.8663 -3.4383,-6.81251 -7.3789,-6.81251 z m 1.9999,4.00027 h 5.301 c 2.0192,0 3.3791,1.34451 3.3791,2.81224 v 0.19327 c 0,1.46771 -1.3599,2.81481 -3.3791,2.81481 h -5.301 z" /><path
       id="path86"
       style="color:#000000;fill:#191c1f;fill-opacity:1;stroke-linecap:round;stroke-linejoin:round;-inkscape-stroke:none"
       d="m 1939.2811,382.85394 a 2.0002,2.0002 0 0 0 -1.8454,1.22473 l -7.3246,17.46095 a 2,2 0 0 0 1.0702,2.6169 2,2 0 0 0 2.6195,-1.07022 l 1.3855,-3.30264 h 8.1881 l 1.3854,3.30264 a 2,2 0 0 0 2.619,1.07022 2,2 0 0 0 1.0702,-2.6169 l -1.9125,-4.55941 -5.4116,-12.90154 a 2.0002,2.0002 0 0 0 -1.8438,-1.22473 z m 0,7.17011 2.4159,5.75985 h -4.8323 z" /><path
       id="path87"
       style="color:#000000;fill:url(#linearGradient92);stroke-linecap:round;stroke-linejoin:round;-inkscape-stroke:none"
       d="m 1952.7287,382.86921 a 2,2 0 0 0 -1.4749,0.40824 2,2 0 0 0 -0.3457,2.80655 l 5.8554,7.49929 -5.8554,7.49876 a 2,2 0 0 0 0.3457,2.80655 2,2 0 0 0 2.8071,-0.34365 l 5.24,-6.71122 5.24,6.71122 a 2,2 0 0 0 2.8086,0.34365 2,2 0 0 0 0.3441,-2.80655 l -5.8554,-7.49876 5.8554,-7.49929 a 2,2 0 0 0 -0.3441,-2.80655 2,2 0 0 0 -1.4764,-0.40824 2,2 0 0 0 -1.3322,0.75396 l -5.24,6.7107 -5.24,-6.7107 a 2,2 0 0 0 -1.3322,-0.75396 z" /><path
       style="color:#000000;fill:#191c1f;fill-opacity:1;stroke-linecap:round;stroke-linejoin:round;-inkscape-stroke:none"
       d="m 1919.3086,382.84424 c -2.8433,0.0983 -5.6474,1.19814 -7.7891,3.28125 -4.2833,4.16626 -4.2004,11.00274 0.1778,15.07617 4.3781,4.07344 11.3178,4.16793 15.8203,0.22265 a 2,2 0 0 0 0.1855,-2.82226 2,2 0 0 0 -2.8222,-0.18555 c -2.9157,2.55487 -7.6325,2.48722 -10.459,-0.14258 -2.8265,-2.62978 -2.8723,-6.59768 -0.1133,-9.28125 2.7589,-2.68353 7.4709,-2.85109 10.4512,-0.35351 a 2,2 0 0 0 2.8183,-0.24805 2,2 0 0 0 -0.248,-2.8164 c -2.2959,-1.9241 -5.1782,-2.82874 -8.0215,-2.73047 z"
       id="path88" /></g></svg>
