<?xml version="1.0" encoding="UTF-8" standalone="no"?>
<!-- Created with Inkscape (http://www.inkscape.org/) -->

<svg
   width="117.64495mm"
   height="35.479538mm"
   viewBox="0 0 117.64495 35.479537"
   version="1.1"
   id="svg1"
   xml:space="preserve"
   sodipodi:docname="RCAX.svg"
   inkscape:version="1.3.2 (091e20e, 2023-11-25, custom)"
   xmlns:inkscape="http://www.inkscape.org/namespaces/inkscape"
   xmlns:sodipodi="http://sodipodi.sourceforge.net/DTD/sodipodi-0.dtd"
   xmlns:xlink="http://www.w3.org/1999/xlink"
   xmlns="http://www.w3.org/2000/svg"
   xmlns:svg="http://www.w3.org/2000/svg"><sodipodi:namedview
     id="namedview1"
     pagecolor="#505050"
     bordercolor="#eeeeee"
     borderopacity="1"
     inkscape:showpageshadow="0"
     inkscape:pageopacity="0"
     inkscape:pagecheckerboard="0"
     inkscape:deskcolor="#505050"
     inkscape:document-units="mm"
     inkscape:zoom="0.70710678"
     inkscape:cx="3290.1679"
     inkscape:cy="-137.17872"
     inkscape:window-width="1360"
     inkscape:window-height="715"
     inkscape:window-x="-8"
     inkscape:window-y="-8"
     inkscape:window-maximized="1"
     inkscape:current-layer="layer1"
     showguides="true" /><defs
     id="defs1"><linearGradient
       id="linearGradient119"
       inkscape:collect="always"
       inkscape:label="amber 500-600"><stop
         style="stop-color:#ff4500;stop-opacity:1;"
         offset="0"
         id="stop118" /><stop
         style="stop-color:#f29d0f;stop-opacity:1;"
         offset="1"
         id="stop119" /></linearGradient><linearGradient
       inkscape:collect="always"
       xlink:href="#linearGradient119"
       id="linearGradient137"
       gradientUnits="userSpaceOnUse"
       gradientTransform="translate(179.86074,-115.30142)"
       x1="2812.6597"
       y1="566.30017"
       x2="2812.6597"
       y2="530.8653" /><linearGradient
       inkscape:collect="always"
       xlink:href="#linearGradient119"
       id="linearGradient138"
       gradientUnits="userSpaceOnUse"
       gradientTransform="translate(1380.3616,174.49031)"
       x1="1705.0295"
       y1="269.50314"
       x2="1705.0295"
       y2="248.04361" /></defs><g
     inkscape:label="Layer 1"
     inkscape:groupmode="layer"
     id="layer1"
     transform="translate(-2976.5625,-415.51923)"><path
       id="path116"
       style="color:#000000;fill:#191c1f;fill-opacity:1;stroke-linecap:round;stroke-linejoin:round;-inkscape-stroke:none"
       d="m 3017.4727,422.53384 a 2.000195,2.000195 0 0 0 -1.9998,1.99988 v 9.82059 7.63881 a 2,2 0 0 0 1.9998,1.99988 2,2 0 0 0 1.9999,-1.99988 v -5.63893 h 4.2628 l 4.7821,6.7908 a 2,2 0 0 0 2.7875,0.48265 2,2 0 0 0 0.4821,-2.78691 l -3.6819,-5.22965 c 2.362,-1.11048 4.0473,-3.36539 4.0473,-6.07146 v -0.19327 c 0,-3.8663 -3.4383,-6.81251 -7.3789,-6.81251 z m 1.9999,4.00027 h 5.301 c 2.0192,0 3.3791,1.34451 3.3791,2.81224 v 0.19327 c 0,1.46771 -1.3599,2.81481 -3.3791,2.81481 h -5.301 z"
       inkscape:export-filename="RCAX_Letters_DarkMode.svg"
       inkscape:export-xdpi="96"
       inkscape:export-ydpi="96" /><path
       id="path118"
       style="color:#000000;fill:#191c1f;fill-opacity:1;stroke-linecap:round;stroke-linejoin:round;-inkscape-stroke:none"
       d="m 3065.3711,422.53384 a 2.0002,2.0002 0 0 0 -1.8454,1.22473 l -7.3246,17.46095 a 2,2 0 0 0 1.0702,2.6169 2,2 0 0 0 2.6195,-1.07022 l 1.3855,-3.30264 h 8.1881 l 1.3854,3.30264 a 2,2 0 0 0 2.619,1.07022 2,2 0 0 0 1.0702,-2.6169 l -1.9125,-4.55941 -5.4116,-12.90154 a 2.0002,2.0002 0 0 0 -1.8438,-1.22473 z m 0,7.17011 2.4159,5.75985 h -4.8323 z" /><path
       id="path122"
       style="color:#000000;fill:url(#linearGradient138);stroke-linecap:round;stroke-linejoin:round;-inkscape-stroke:none"
       d="m 3078.8187,422.54911 a 2,2 0 0 0 -1.4749,0.40824 2,2 0 0 0 -0.3457,2.80655 l 5.8554,7.49929 -5.8554,7.49876 a 2,2 0 0 0 0.3457,2.80655 2,2 0 0 0 2.8071,-0.34365 l 5.24,-6.71122 5.24,6.71122 a 2,2 0 0 0 2.8086,0.34365 2,2 0 0 0 0.3441,-2.80655 l -5.8554,-7.49876 5.8554,-7.49929 a 2,2 0 0 0 -0.3441,-2.80655 2,2 0 0 0 -1.4764,-0.40824 2,2 0 0 0 -1.3322,0.75396 l -5.24,6.7107 -5.24,-6.7107 a 2,2 0 0 0 -1.3322,-0.75396 z" /><path
       style="color:#000000;fill:#191c1f;fill-opacity:1;stroke-linecap:round;stroke-linejoin:round;-inkscape-stroke:none"
       d="m 3045.3986,422.52414 c -2.8433,0.0983 -5.6474,1.19814 -7.7891,3.28125 -4.2833,4.16626 -4.2004,11.00274 0.1778,15.07617 4.3781,4.07344 11.3178,4.16793 15.8203,0.22265 a 2,2 0 0 0 0.1855,-2.82226 2,2 0 0 0 -2.8222,-0.18555 c -2.9157,2.55487 -7.6325,2.48722 -10.459,-0.14258 -2.8265,-2.62978 -2.8723,-6.59768 -0.1133,-9.28125 2.7589,-2.68353 7.4709,-2.85109 10.4512,-0.35351 a 2,2 0 0 0 2.8183,-0.24805 2,2 0 0 0 -0.248,-2.8164 c -2.2959,-1.9241 -5.1782,-2.82874 -8.0215,-2.73047 z"
       id="path136" /><path
       id="path137"
       style="color:#000000;fill:url(#linearGradient137);stroke-linecap:round;stroke-linejoin:round;-inkscape-stroke:none"
       d="m 2992.5202,415.51923 v 5.1e-4 c -0.114,-5e-5 -0.2281,0.01 -0.3416,0.0295 -0.2255,0.0389 -0.4425,0.11612 -0.6418,0.22841 l -13.9568,7.86929 c -0.6286,0.35455 -1.0174,1.02028 -1.0175,1.74201 v 15.74064 c 1e-4,0.72173 0.3889,1.38746 1.0175,1.74201 l 7.3458,4.1403 7.6032,-10.35904 3.2091,4.37493 c 0.6532,0.89016 1.9041,1.0826 2.7946,0.42994 0.8918,-0.65334 1.0844,-1.90626 0.43,-2.79724 l -3.9569,-5.3945 6.2399,-8.5292 3.2324,1.82005 v 13.40279 l -11.959,6.74223 -2.5134,-1.41883 -2.3854,3.24786 3.9165,2.21 c 0.6098,0.34384 1.3549,0.34384 1.9647,0 l 13.9594,-7.86929 c 0.6286,-0.35458 1.0174,-1.0203 1.0175,-1.74201 v -15.74064 c -10e-5,-0.72171 -0.3888,-1.38761 -1.0175,-1.74201 l -7.3458,-4.14084 -2.6082,3.56568 -4.9826,6.81147 -3.2215,-4.3925 c -0.3144,-0.42799 -0.786,-0.71337 -1.311,-0.79323 -0.524,-0.0807 -1.0585,0.05 -1.4862,0.36328 -0.8903,0.65339 -1.0826,1.90469 -0.4295,2.79518 l 3.9714,5.41362 -6.2353,8.52403 -3.25,-1.834 V 426.5568 l 11.9569,-6.74171 2.516,1.41987 2.3854,-3.24786 -3.9154,-2.21001 c -0.3011,-0.1697 -0.6395,-0.25769 -0.9813,-0.25786 z"
       sodipodi:nodetypes="cccccccccccccccccccccccccsccccccccccccccccc" /></g></svg>
